HIERARCHY
ROOT Hips
{
  OFFSET 0 0 0
  CHANNELS 6 Xposition Yposition Zposition Zrotation Xrotation Yrotation
  JOINT Spine
  {
    OFFSET 0 10 0
    CHANNELS 3 Zrotation Xrotation Yrotation
    JOINT Neck
    {
      OFFSET 0 30 0
      CHANNELS 3 Zrotation Xrotation Yrotation
      JOINT Head
      {
        OFFSET 0 8 0
        CHANNELS 3 Zrotation Xrotation Yrotation
        End Site
        {
          OFFSET 0 10 0
        }
      }
    }
    JOINT LeftArm
    {
      OFFSET 15 30 0
      CHANNELS 3 Zrotation Xrotation Yrotation
      JOINT LeftForeArm
      {
        OFFSET 25 0 0
        CHANNELS 3 Zrotation Xrotation Yrotation
        JOINT LeftHand
        {
          OFFSET 25 0 0
          CHANNELS 3 Zrotation Xrotation Yrotation
          End Site
          {
            OFFSET 10 0 0
          }
        }
      }
    }
    JOINT RightArm
    {
      OFFSET -15 30 0
      CHANNELS 3 Zrotation Xrotation Yrotation
      JOINT RightForeArm
      {
        OFFSET -25 0 0
        CHANNELS 3 Zrotation Xrotation Yrotation
        JOINT RightHand
        {
          OFFSET -25 0 0
          CHANNELS 3 Zrotation Xrotation Yrotation
          End Site
          {
            OFFSET -10 0 0
          }
        }
      }
    }
  }
  JOINT LeftUpLeg
  {
    OFFSET 10 -10 0
    CHANNELS 3 Zrotation Xrotation Yrotation
    JOINT LeftLeg
    {
      OFFSET 0 -35 0
      CHANNELS 3 Zrotation Xrotation Yrotation
      JOINT LeftFoot
      {
        OFFSET 0 -40 0
        CHANNELS 3 Zrotation Xrotation Yrotation
        End Site
        {
          OFFSET 0 0 15
        }
      }
    }
  }
  JOINT RightUpLeg
  {
    OFFSET -10 -10 0
    CHANNELS 3 Zrotation Xrotation Yrotation
    JOINT RightLeg
    {
      OFFSET 0 -35 0
      CHANNELS 3 Zrotation Xrotation Yrotation
      JOINT RightFoot
      {
        OFFSET 0 -40 0
        CHANNELS 3 Zrotation Xrotation Yrotation
        End Site
        {
          OFFSET 0 0 15
        }
      }
    }
  }
}
MOTION
Frames: 10
Frame Time: 0.00833333
166.339 84.678 -6.58424 0.73743 0.445843 -92.6358 -9.46197 -25.2072 1.78199 12.4914 -10.3697 6.90359 -7.33343 22.076 8.74092 -13.4008 47.9729 -39.1872 27.6544 -14.1464 -53.5074 4.24154e-05 -71.14 4.48219e-05 37.462 45.9304 28.966 -28.6126 -15.4575 56.0433 -1.254e-05 -51.3445 -1.933e-05 -0.959471 -0.480625 -0.515023 0.127742 1.03283 0.229778 1.69315 -1.86926 -0.30648 -0.97793 0.36409 -0.714046 0.215436 -0.0148635 0.361467 1.62836 -1.5195 -0.238685
166.329 84.6603 -6.53833 0.768963 0.470165 -92.6332 -9.36225 -25.2681 1.75708 12.4864 -10.3024 6.91985 -7.42626 22.1703 8.81905 -13.527 48.0709 -39.1255 27.624 -14.1067 -53.4293 4.24507e-05 -71.1545 4.48553e-05 37.4345 45.9775 28.989 -28.6066 -15.4489 56.027 -1.24993e-05 -51.2689 -1.92982e-05 -0.974155 -0.556422 -0.525624 0.130777 1.16858 0.251858 1.73825 -1.9781 -0.312852 -0.986086 0.273179 -0.709815 0.209023 -0.000603215 0.353994 1.65136 -1.48314 -0.238829
166.319 84.6405 -6.49105 0.796963 0.496548 -92.6221 -9.26251 -25.329 1.73227 12.4813 -10.235 6.9361 -7.5193 22.2646 8.8974 -13.6535 48.1688 -39.0633 27.5935 -14.067 -53.3512 4.24861e-05 -71.1691 4.48887e-05 37.4069 46.0247 29.0121 -28.6005 -15.4403 56.0107 -1.24587e-05 -51.1934 -1.92665e-05 -0.986085 -0.689176 -0.53441 0.13095 1.37455 0.263317 1.78461 -2.09353 -0.319329 -0.989019 0.204181 -0.700631 0.197508 -0.0101678 0.332274 1.67235 -1.44252 -0.239171
166.309 84.6195 -6.44268 0.821398 0.524049 -92.6036 -9.13306 -25.379 1.71334 12.4717 -10.1667 6.95832 -7.61843 22.3404 8.98706 -13.8138 48.2557 -38.9852 27.5618 -14.0257 -53.2695 4.25156e-05 -71.1813 4.49166e-05 37.3619 46.0677 29.0521 -28.5916 -15.4277 55.9865 -1.24193e-05 -51.12 -1.92359e-05 -0.997307 -0.806225 -0.542138 0.1299 1.57375 0.265895 1.83253 -2.21215 -0.325904 -0.989301 0.123149 -0.684559 0.179343 -0.00799522 0.296546 1.69683 -1.39885 -0.239867
166.298 84.5979 -6.39351 0.842263 0.551731 -92.5782 -9.00088 -25.428 1.69505 12.4616 -10.0984 6.98108 -7.71827 22.4144 9.07791 -13.9776 48.3416 -38.9051 27.5298 -13.9843 -53.1876 4.25447e-05 -71.1932 4.49441e-05 37.3152 46.1102 29.0938 -28.5825 -15.4148 55.9616 -1.23802e-05 -51.0468 -1.92055e-05 -1.00914 -0.908159 -0.549442 0.128167 1.76237 0.261056 1.88234 -2.3305 -0.3327 -0.988105 0.0468373 -0.659668 0.154089 0.0615649 0.247801 1.72999 -1.42411 -0.241096
166.287 84.5763 -6.34382 0.859535 0.578685 -92.5468 -8.84487 -25.47 1.67884 12.4464 -10.0276 7.00823 -7.82192 22.4732 9.17953 -14.1686 48.418 -38.8152 27.4957 -13.9401 -53.0997 4.25742e-05 -71.2054 4.49721e-05 37.257 46.1476 29.148 -28.5701 -15.3971 55.9278 -1.23432e-05 -50.9773 -1.91767e-05 -1.02275 -1.00979 -0.556987 0.12595 1.95083 0.250213 1.93434 -2.44514 -0.339827 -0.985823 -0.0247065 -0.624009 0.120998 0.203402 0.186491 1.77745 -1.52284 -0.243278
166.275 84.5552 -6.29381 0.872213 0.604691 -92.5097 -8.68406 -25.5106 1.66314 12.4302 -9.95642 7.03627 -7.92644 22.5289 9.28341 -14.3655 48.4922 -38.7229 27.4611 -13.8955 -53.0107 4.2604e-05 -71.2175 4.50003e-05 37.1965 46.1838 29.2047 -28.5571 -15.3785 55.8921 -1.23067e-05 -50.9086 -1.91484e-05 -1.03867 -1.10573 -0.56505 0.123311 2.13143 0.233668 1.98877 -2.55327 -0.347358 -0.9821 -0.104751 -0.57705 0.0789842 0.365628 0.113436 1.84585 -1.62923 -0.247671
166.26 84.5351 -6.24329 0.876426 0.631504 -92.4651 -8.50662 -25.5458 1.64906 12.4102 -9.88271 7.06782 -8.03448 22.5746 9.39574 -14.5819 48.5613 -38.6232 27.4246 -13.8485 -52.9171 4.26373e-05 -71.2312 4.50318e-05 37.1271 46.2172 29.271 -28.5414 -15.3561 55.8495 -1.22708e-05 -50.8407 -1.91205e-05 -1.05519 -1.16052 -0.572524 0.119802 2.27272 0.20827 2.04573 -2.65396 -0.355404 -0.975379 -0.145685 -0.522597 0.0281455 0.498382 0.0330144 1.94371 -1.73961 -0.257093
166.245 84.5156 -6.1917 0.870457 0.659226 -92.4107 -8.32361 -25.5793 1.6356 12.389 -9.80818 7.10055 -8.14377 22.6168 9.51096 -14.8052 48.6284 -38.5207 27.3875 -13.8007 -52.822 4.26718e-05 -71.2453 4.50645e-05 37.0547 46.2495 29.3405 -28.5249 -15.3326 55.8047 -1.22352e-05 -50.7731 -1.90929e-05 -1.07069 -1.20483 -0.578592 0.114573 2.41021 0.170624 2.10544 -2.7492 -0.363962 -0.963232 -0.208752 -0.46106 -0.0336689 0.666299 -0.0567311 2.07128 -1.85672 -0.271391
166.229 84.4957 -6.13944 0.863266 0.683674 -92.3514 -8.11674 -25.6023 1.62973 12.3653 -9.73449 7.1385 -8.25904 22.6448 9.63361 -15.0555 48.6876 -38.4016 27.3503 -13.753 -52.7271 4.26969e-05 -71.2556 4.50883e-05 36.9654 46.2805 29.4251 -28.507 -15.3071 55.7562 -1.21992e-05 -50.7047 -1.9065e-05 -1.08915 -1.2463 -0.585554 0.109339 2.54293 0.128723 2.16723 -2.84159 -0.372863 -0.951655 -0.246159 -0.386526 -0.101897 0.814992 -0.162324 2.20763 -1.97774 -0.286928
